<?xml version="1.0" standalone="no"?>
<!DOCTYPE svg PUBLIC "-//W3C//DTD SVG 20010904//EN"
 "http://www.w3.org/TR/2001/REC-SVG-20010904/DTD/svg10.dtd">
<svg version="1.0" xmlns="http://www.w3.org/2000/svg"
 width="512.000000pt" height="512.000000pt" viewBox="0 0 512.000000 512.000000"
 preserveAspectRatio="xMidYMid meet">

<g transform="translate(0.000000,512.000000) scale(0.100000,-0.100000)"
fill="#000000" stroke="none">
<path d="M1199 4260 c-340 -40 -647 -271 -779 -586 -39 -94 -144 -506 -200
-785 -84 -423 -115 -723 -107 -1037 7 -264 32 -408 100 -569 112 -264 345
-426 617 -427 196 -1 351 69 529 239 114 110 263 312 340 463 21 42 22 42 75
42 161 0 365 75 486 178 l38 32 262 0 262 0 38 -33 c110 -94 288 -163 446
-174 l93 -6 51 -91 c153 -269 359 -489 545 -584 88 -44 185 -66 290 -66 325 3
565 202 666 554 37 128 51 234 56 442 9 315 -23 615 -109 1043 -56 281 -159
685 -198 778 -90 215 -273 405 -484 503 -159 73 -343 103 -509 84 -230 -27
-397 -114 -604 -312 l-111 -108 -432 0 -432 0 -111 108 c-203 195 -375 285
-597 312 -93 11 -124 11 -221 0z m273 -225 c136 -28 286 -123 423 -267 50 -52
99 -93 130 -108 l50 -25 485 0 485 0 48 24 c29 14 90 65 150 125 195 195 345
265 568 266 284 0 536 -155 670 -412 87 -168 253 -928 301 -1378 16 -155 16
-514 -1 -614 -52 -315 -165 -490 -359 -555 -167 -57 -349 -1 -514 157 -104 99
-249 306 -337 479 -17 34 -41 68 -53 75 -15 8 -67 13 -143 14 -101 1 -132 5
-192 26 -90 32 -149 66 -214 124 -28 25 -62 50 -76 55 -33 12 -634 12 -667 -1
-14 -5 -45 -27 -69 -49 -116 -107 -236 -152 -412 -155 -76 -1 -128 -6 -143
-14 -12 -7 -36 -41 -53 -75 -52 -102 -136 -236 -210 -334 -203 -268 -428 -374
-641 -302 -442 148 -495 905 -157 2244 56 222 98 323 174 424 96 126 254 229
415 271 91 23 246 26 342 5z"/>
<path d="M1183 3615 c-48 -21 -63 -59 -63 -165 l0 -90 -90 0 c-104 0 -141 -14
-166 -61 -22 -43 -11 -91 27 -123 28 -24 38 -26 129 -26 l98 0 4 -104 c3 -94
5 -107 27 -130 33 -35 85 -44 127 -21 18 10 36 25 40 34 5 9 11 61 14 116 l5
100 100 5 c115 7 130 12 150 51 25 48 19 87 -19 125 l-34 34 -101 0 -101 0 0
98 c0 110 -10 135 -66 158 -40 17 -41 17 -81 -1z"/>
<path d="M3854 3616 c-91 -40 -84 -165 10 -196 64 -21 136 33 136 100 0 37
-30 81 -65 96 -41 17 -42 17 -81 0z"/>
<path d="M3590 3353 c-30 -11 -60 -47 -66 -81 -19 -99 105 -164 177 -93 78 79
-7 212 -111 174z"/>
<path d="M4104 3341 c-89 -54 -47 -191 57 -191 74 0 124 75 95 143 -15 38 -59
67 -98 67 -13 0 -37 -9 -54 -19z"/>
<path d="M2171 3064 c-38 -32 -49 -80 -27 -123 24 -46 62 -61 157 -61 79 0 82
1 115 34 49 49 45 114 -10 158 -16 14 -41 18 -113 18 -84 0 -94 -2 -122 -26z"/>
<path d="M2717 3079 c-24 -14 -47 -62 -47 -100 0 -22 10 -41 34 -65 33 -33 36
-34 115 -34 95 0 133 15 157 61 22 43 11 91 -27 123 -28 24 -38 26 -122 26
-51 0 -100 -5 -110 -11z"/>
<path d="M3819 3061 c-49 -50 -36 -133 26 -166 63 -35 140 4 152 78 15 97
-108 158 -178 88z"/>
<path d="M1660 2761 c-97 -31 -187 -107 -233 -196 -29 -56 -32 -67 -32 -160 0
-89 3 -107 29 -162 35 -76 104 -144 184 -181 49 -23 70 -27 152 -27 82 0 103
4 152 27 79 37 142 98 181 177 29 60 32 74 32 161 0 87 -3 101 -32 161 -39 79
-102 140 -181 177 -45 21 -74 27 -142 29 -47 1 -96 -1 -110 -6z m163 -215
c103 -43 128 -177 48 -257 -65 -65 -157 -65 -222 0 -124 123 13 325 174 257z"/>
<path d="M3260 2761 c-97 -31 -187 -107 -233 -196 -29 -56 -32 -67 -32 -160 0
-89 3 -107 29 -162 35 -76 104 -144 184 -181 49 -23 70 -27 152 -27 82 0 103
4 152 27 79 37 142 98 181 177 29 60 32 74 32 161 0 87 -3 101 -32 161 -39 79
-102 140 -181 177 -45 21 -74 27 -142 29 -47 1 -96 -1 -110 -6z m163 -215
c103 -43 128 -177 48 -257 -65 -65 -157 -65 -222 0 -124 123 13 325 174 257z"/>
</g>
</svg>
